# xmcd
#
# Track frame offsets:
#	150
#	18302
#	38582
#	57075
#	78442
#	99602
#	123655
#	142141
#	163049
#	185534
#	205891
#	236505
#
# Disc length: 3177 seconds
# Revision: 0
# Processed by: cddbd v1.5.2PL0 Copyright (c) Steve Scherf et al.
# Submitted via: dBpowerAMP V12.0
#
DISCID=a10c670c
DTITLE=Soilwork - A Predator's Portrait (Reloaded)
DYEAR=2001
DGENRE=Metal
TTITLE0=Bastard Chain
TTITLE1=Like the Average Stalker
TTITLE2=Needlefeast
TTITLE3=Neurotica Rampage
TTITLE4=The Analyst
TTITLE5=Grand Failure Anthem
TTITLE6=Structure Divine
TTITLE7=Shadowchild
TTITLE8=Final Fatal Force
TTITLE9=A Predator's Portrait
TTITLE10=Asylum Dance
TTITLE11=DATA
EXTD=
EXTT0=
EXTT1=
EXTT2=
EXTT3=
EXTT4=
EXTT5=
EXTT6=
EXTT7=
EXTT8=
EXTT9=
EXTT10=
EXTT11=
PLAYORDER=
